<svg xmlns="http://www.w3.org/2000/svg" version="1.1" xmlns:xlink="http://www.w3.org/1999/xlink" xmlns:svgjs="http://svgjs.dev/svgjs" width="1440" height="560" preserveAspectRatio="none" viewBox="0 0 1440 560"><g mask="url(&quot;#SvgjsMask1005&quot;)" fill="none"><rect width="1440" height="560" x="0" y="0" fill="rgba(26, 40, 134, 1)"></rect><path d="M122.93 0C152.79 37.33 106.56 71.54 112 140C115.09 178.88 117.04 183.57 140 214.67C168.73 253.57 173.16 256.83 215.38 280C243.16 295.25 248.55 282.41 280 291.51C350.86 312.02 360.44 343.17 420 339.23C447.55 337.41 454.22 306.91 454.22 280C454.22 261.89 435.01 266.58 420 249.2C374.56 196.58 333.33 194.18 333.33 140C333.33 87.08 372.3 82.63 420 35C442.4 12.63 443.77 7.44 473.53 0C513.77 -10.06 516.76 0 560 0C630 0 630 0 700 0C751.74 0 773.02 -28.12 803.48 0C843.02 36.49 821.05 129.23 840 129.23C859.07 129.23 839.38 37.06 879.53 0C909.38 -27.55 929.76 0 980 0C1050 0 1050 0 1120 0C1190 0 1190 0 1260 0C1330 0 1330 0 1400 0C1470 0 1505 -35 1540 0C1575 35 1540 70 1540 140C1540 210 1540 210 1540 280C1540 303.34 1548.07 305.48 1540 326.67C1521.41 375.48 1486.67 378.53 1486.67 420C1486.67 446.19 1529.09 433.35 1540 462C1555.75 503.35 1567.8 538.8 1540 560C1503.54 587.8 1472.21 566.9 1411.48 560C1402.21 558.95 1405.41 544.09 1400 544.09C1394.88 544.09 1399.14 559.01 1390.41 560C1329.14 566.96 1325.2 560 1260 560C1190 560 1190 560 1120 560C1050 560 1050 560 980 560C910 560 910 560 840 560C770 560 770 560 700 560C630 560 630 560 560 560C490 560 490 560 420 560C350 560 350 560 280 560C237.71 560 214.93 586.2 195.42 560C162.82 516.2 191.17 488.69 175.78 420C163.46 365.03 164.58 362.12 140 312.67C129.79 292.12 125.85 292.58 106.21 280C55.85 247.73 31.46 264.43 0 222.96C-21.65 194.43 0 181.48 0 140C0 70 -32.73 37.27 0 0C28.74 -32.73 96.79 -32.67 122.93 0" stroke="rgba(3, 124, 185, 1)" stroke-width="2"></path><path d="M840 196C835.88 196 832.63 239.59 832.63 280C832.63 284.5 836.17 285.83 840 285.83C844.42 285.83 849.13 285.1 849.13 280C849.13 240.19 844.13 196 840 196" stroke="rgba(3, 124, 185, 1)" stroke-width="2"></path><path d="M1120 392C1090.06 392 1058.54 394.97 1058.54 420C1058.54 471.97 1092.39 546 1120 546C1146.46 546 1166.67 474.8 1166.67 420C1166.67 397.8 1144.13 392 1120 392" stroke="rgba(3, 124, 185, 1)" stroke-width="2"></path><path d="M0 458.18C10.77 458.18 41.48 523.04 41.48 560C41.48 573.95 6 574.74 0 560C-14.74 523.83 -9.97 458.18 0 458.18" stroke="rgba(3, 124, 185, 1)" stroke-width="2"></path><path d="M80.24 0C88.23 45.68 57.87 74.23 24.5 140C17.75 153.31 7.68 158.15 0 158.15C-4.57 158.15 0 149.07 0 140C0 70 -25.5 44.5 0 0C14.62 -25.5 75.98 -24.32 80.24 0" stroke="rgba(3, 124, 185, 1)" stroke-width="2"></path><path d="M388.89 140C388.89 121.01 400.6 116.83 420 102.31C486.15 52.79 491.02 58.37 560 11.91C566.97 7.21 563.78 0.69 571.91 0C633.78 -5.26 635.95 0 700 0C732.71 0 751.53 -22.1 765.43 0C795.56 47.9 786.61 69.8 788.06 140C789.51 209.8 755.22 220.06 771.23 280C781.19 317.28 804.24 334.44 840 334.44C881.23 334.44 888.6 313.63 925.22 280C958.6 249.35 941.99 226.93 980 205.88C1039.38 172.99 1049.05 178.97 1120 172.13C1189.05 165.47 1195.85 190.46 1260 178.89C1284.94 174.39 1298.18 161.09 1298.18 140C1298.18 114.01 1280.7 111.14 1260 84.74C1225.83 41.14 1188.44 25.75 1188.44 0C1188.44 -16.62 1224.22 0 1260 0C1298.34 0 1301.91 -11.19 1336.67 0C1371.91 11.35 1370.11 20.32 1400 45.08C1454.61 90.32 1505.66 90.62 1505.66 140C1505.66 192.98 1453.18 195.24 1400 249.8C1384.95 265.24 1369.2 262.32 1369.2 280C1369.2 308.22 1386.09 310.14 1400 341.6C1417.04 380.14 1431.11 382.61 1431.11 420C1431.11 444.09 1414.53 441.61 1400 464.55C1370.21 511.61 1382.7 532.57 1342.47 560C1312.7 580.3 1301.24 560 1260 560C1214.39 560 1174.11 586.1 1168.79 560C1159.85 516.1 1244.68 475.99 1231.48 420C1220.29 372.55 1178.45 356.36 1120 353.11C1052.71 349.36 1046.28 375.65 980 406C973.24 409.1 973.91 412.6 973.91 420C973.91 439.6 975.62 440.27 980 460C991.16 510.27 1005 519.76 1005 560C1005 569.76 992.5 560 980 560C910 560 910 560 840 560C814.21 560 810.51 570.82 788.42 560C740.51 536.53 750.67 508.76 700 491.43C636.46 469.69 619.56 462.02 560 481.86C516.62 496.31 534.69 537.35 494.12 560C464.69 576.42 457.06 560 420 560C350 560 350 560 280 560C274.16 560 270.69 565.06 268.33 560C238.02 495.06 211.22 485.18 214.67 420C217.06 374.91 241.86 339.45 280 339.45C331.06 339.45 340.63 375.64 393.08 420C410.63 434.84 403.8 457.84 420 457.84C441.4 457.84 452.31 445.35 468.28 420C508.31 356.43 544.19 340.82 532 280C520.05 220.42 473.71 231.75 420 179.2C402.16 161.75 388.89 159.45 388.89 140" stroke="rgba(3, 124, 185, 1)" stroke-width="2"></path><path d="M980 96.92C945.93 96.92 920.71 31.84 920.71 0C920.71 -16.62 950.36 0 980 0C1023.45 0 1066.9 -19.4 1066.9 0C1066.9 29.06 1019.03 96.92 980 96.92" stroke="rgba(3, 124, 185, 1)" stroke-width="2"></path><path d="M1468.85 560C1468.85 544.89 1517.85 505.75 1540 505.75C1553.43 505.75 1555.39 548.27 1540 560C1519.82 575.39 1468.85 572.02 1468.85 560" stroke="rgba(3, 124, 185, 1)" stroke-width="2"></path><path d="M37.56 0C37.56 26.77 9.89 77 0 77C-8.89 77 -12.62 25.88 0 0C6.16 -12.62 37.56 -11.73 37.56 0" stroke="rgba(3, 124, 185, 1)" stroke-width="2"></path><path d="M473.1 140C473.1 109.85 520.55 118.25 560 86.38C607.19 48.25 597.73 30.02 646.38 0C667.73 -13.17 673.19 0 700 0C713.69 0 724.8 -11.45 727.39 0C740.61 58.55 735.98 70.4 731.61 140C727.19 210.4 717.76 209.67 709.82 280C701.96 349.67 709.37 420 700 420C690.46 420 708.65 333.89 672 280C638.65 230.95 612.93 251.37 560 214.12C513.48 181.37 473.1 173.72 473.1 140" stroke="rgba(3, 124, 185, 1)" stroke-width="2"></path><path d="M980 29.62C969.59 29.62 961.88 9.73 961.88 0C961.88 -5.08 970.94 0 980 0C993.28 0 1006.55 -5.93 1006.55 0C1006.55 8.88 991.93 29.62 980 29.62" stroke="rgba(3, 124, 185, 1)" stroke-width="2"></path><path d="M1361.82 140C1361.82 121.51 1380.75 104.41 1400 104.41C1419.65 104.41 1439.62 121.48 1439.62 140C1439.62 159.87 1419.62 181.18 1400 181.18C1380.72 181.18 1361.82 159.89 1361.82 140" stroke="rgba(3, 124, 185, 1)" stroke-width="2"></path><path d="M1013.79 280C1013.79 258.27 1063.96 237.77 1120 229.51C1187.06 219.62 1195.06 225.4 1260 243.7C1284.66 250.65 1299.2 258.75 1299.2 280C1299.2 311.9 1291.99 343.89 1260 350C1202.39 361 1189.46 333.97 1120 314.22C1066.36 298.97 1013.79 300.62 1013.79 280" stroke="rgba(3, 124, 185, 1)" stroke-width="2"></path><path d="M253.56 420C253.56 401.82 264.56 387.4 280 387.4C300.67 387.4 325.77 400 325.77 420C325.77 447.61 299.24 482.63 280 482.63C263.14 482.63 253.56 449.44 253.56 420" stroke="rgba(3, 124, 185, 1)" stroke-width="2"></path><path d="M700 420C700 390.71 772.89 383.06 840 383.06C871.81 383.06 897.83 395.3 897.83 420C897.83 458.1 878.56 508.67 840 508.67C779.64 508.67 700 453.52 700 420" stroke="rgba(3, 124, 185, 1)" stroke-width="2"></path><path d="M407.83 560C407.83 557.95 414.66 552.43 420 552.43C423.49 552.43 425.49 557.62 425.49 560C425.49 561.4 422.75 560 420 560C413.91 560 407.83 561.74 407.83 560" stroke="rgba(3, 124, 185, 1)" stroke-width="2"></path><path d="M1221.82 560C1221.82 532.58 1241.66 481.25 1260 481.25C1278.01 481.25 1294.52 531.9 1294.52 560C1294.52 571.28 1277.26 560 1260 560C1240.91 560 1221.82 571.96 1221.82 560" stroke="rgba(3, 124, 185, 1)" stroke-width="2"></path><path d="M1526.23 560C1526.23 557.08 1535.71 549.5 1540 549.5C1542.6 549.5 1542.98 557.73 1540 560C1536.09 562.98 1526.23 562.33 1526.23 560" stroke="rgba(3, 124, 185, 1)" stroke-width="2"></path></g><defs><mask id="SvgjsMask1005"><rect width="1440" height="560" fill="#ffffff"></rect></mask></defs></svg>