<svg xmlns="http://www.w3.org/2000/svg" version="1.1" xmlns:xlink="http://www.w3.org/1999/xlink" xmlns:svgjs="http://svgjs.dev/svgjs" width="1440" height="560" preserveAspectRatio="none" viewBox="0 0 1440 560"><g mask="url(&quot;#SvgjsMask1000&quot;)" fill="none"><rect width="1440" height="560" x="0" y="0" fill="#0e2a47"></rect><path d="M379.64 68.38L444.59 105.88L444.59 180.88L379.64 218.38L314.69 180.88L314.69 105.88zM444.59 -44.12L509.55 -6.62L509.55 68.38L444.59 105.88L379.64 68.38L379.64 -6.62zM509.55 518.38L574.5 555.88L574.5 630.88L509.55 668.38L444.59 630.88L444.59 555.88zM574.5 180.88L639.45 218.38L639.45 293.38L574.5 330.88L509.55 293.38L509.55 218.38zM639.45 518.38L704.41 555.88L704.41 630.88L639.45 668.38L574.5 630.88L574.5 555.88zM704.41 -44.12L769.36 -6.62L769.36 68.38L704.41 105.88L639.45 68.38L639.45 -6.62zM704.41 405.88L769.36 443.38L769.36 518.38L704.41 555.88L639.45 518.38L639.45 443.38zM769.36 518.38L834.32 555.88L834.32 630.88L769.36 668.38L704.41 630.88L704.41 555.88zM834.31 180.88L899.27 218.38L899.27 293.38L834.31 330.88L769.36 293.38L769.36 218.38zM1159.08 68.38L1224.04 105.88L1224.04 180.88L1159.08 218.38L1094.13 180.88L1094.13 105.88zM1159.08 293.38L1224.04 330.88L1224.04 405.88L1159.08 443.38L1094.13 405.88L1094.13 330.88zM1224.04 -44.12L1288.99 -6.62L1288.99 68.38L1224.04 105.88L1159.08 68.38L1159.08 -6.62zM1418.9 518.38L1483.85 555.88L1483.85 630.88L1418.9 668.38L1353.94 630.88L1353.94 555.88zM1548.81 68.38L1613.76 105.88L1613.76 180.88L1548.81 218.38L1483.85 180.88L1483.85 105.88zM1483.85 180.88L1548.81 218.38L1548.81 293.38L1483.85 330.88L1418.9 293.38L1418.9 218.38z" stroke="#03305d" stroke-width="2"></path><path d="M372.14 68.38 a7.5 7.5 0 1 0 15 0 a7.5 7.5 0 1 0 -15 0zM437.09 105.88 a7.5 7.5 0 1 0 15 0 a7.5 7.5 0 1 0 -15 0zM437.09 180.88 a7.5 7.5 0 1 0 15 0 a7.5 7.5 0 1 0 -15 0zM372.14 218.38 a7.5 7.5 0 1 0 15 0 a7.5 7.5 0 1 0 -15 0zM307.19 180.88 a7.5 7.5 0 1 0 15 0 a7.5 7.5 0 1 0 -15 0zM307.19 105.88 a7.5 7.5 0 1 0 15 0 a7.5 7.5 0 1 0 -15 0zM437.09 -44.12 a7.5 7.5 0 1 0 15 0 a7.5 7.5 0 1 0 -15 0zM502.05 -6.62 a7.5 7.5 0 1 0 15 0 a7.5 7.5 0 1 0 -15 0zM502.05 68.38 a7.5 7.5 0 1 0 15 0 a7.5 7.5 0 1 0 -15 0zM372.14 -6.62 a7.5 7.5 0 1 0 15 0 a7.5 7.5 0 1 0 -15 0zM502.05 518.38 a7.5 7.5 0 1 0 15 0 a7.5 7.5 0 1 0 -15 0zM567 555.88 a7.5 7.5 0 1 0 15 0 a7.5 7.5 0 1 0 -15 0zM567 630.88 a7.5 7.5 0 1 0 15 0 a7.5 7.5 0 1 0 -15 0zM502.05 668.38 a7.5 7.5 0 1 0 15 0 a7.5 7.5 0 1 0 -15 0zM437.09 630.88 a7.5 7.5 0 1 0 15 0 a7.5 7.5 0 1 0 -15 0zM437.09 555.88 a7.5 7.5 0 1 0 15 0 a7.5 7.5 0 1 0 -15 0zM567 180.88 a7.5 7.5 0 1 0 15 0 a7.5 7.5 0 1 0 -15 0zM631.95 218.38 a7.5 7.5 0 1 0 15 0 a7.5 7.5 0 1 0 -15 0zM631.95 293.38 a7.5 7.5 0 1 0 15 0 a7.5 7.5 0 1 0 -15 0zM567 330.88 a7.5 7.5 0 1 0 15 0 a7.5 7.5 0 1 0 -15 0zM502.05 293.38 a7.5 7.5 0 1 0 15 0 a7.5 7.5 0 1 0 -15 0zM502.05 218.38 a7.5 7.5 0 1 0 15 0 a7.5 7.5 0 1 0 -15 0zM631.95 518.38 a7.5 7.5 0 1 0 15 0 a7.5 7.5 0 1 0 -15 0zM696.91 555.88 a7.5 7.5 0 1 0 15 0 a7.5 7.5 0 1 0 -15 0zM696.91 630.88 a7.5 7.5 0 1 0 15 0 a7.5 7.5 0 1 0 -15 0zM631.95 668.38 a7.5 7.5 0 1 0 15 0 a7.5 7.5 0 1 0 -15 0zM696.91 -44.12 a7.5 7.5 0 1 0 15 0 a7.5 7.5 0 1 0 -15 0zM761.86 -6.62 a7.5 7.5 0 1 0 15 0 a7.5 7.5 0 1 0 -15 0zM761.86 68.38 a7.5 7.5 0 1 0 15 0 a7.5 7.5 0 1 0 -15 0zM696.91 105.88 a7.5 7.5 0 1 0 15 0 a7.5 7.5 0 1 0 -15 0zM631.95 68.38 a7.5 7.5 0 1 0 15 0 a7.5 7.5 0 1 0 -15 0zM631.95 -6.62 a7.5 7.5 0 1 0 15 0 a7.5 7.5 0 1 0 -15 0zM696.91 405.88 a7.5 7.5 0 1 0 15 0 a7.5 7.5 0 1 0 -15 0zM761.86 443.38 a7.5 7.5 0 1 0 15 0 a7.5 7.5 0 1 0 -15 0zM761.86 518.38 a7.5 7.5 0 1 0 15 0 a7.5 7.5 0 1 0 -15 0zM631.95 443.38 a7.5 7.5 0 1 0 15 0 a7.5 7.5 0 1 0 -15 0zM826.82 555.88 a7.5 7.5 0 1 0 15 0 a7.5 7.5 0 1 0 -15 0zM826.82 630.88 a7.5 7.5 0 1 0 15 0 a7.5 7.5 0 1 0 -15 0zM761.86 668.38 a7.5 7.5 0 1 0 15 0 a7.5 7.5 0 1 0 -15 0zM826.81 180.88 a7.5 7.5 0 1 0 15 0 a7.5 7.5 0 1 0 -15 0zM891.77 218.38 a7.5 7.5 0 1 0 15 0 a7.5 7.5 0 1 0 -15 0zM891.77 293.38 a7.5 7.5 0 1 0 15 0 a7.5 7.5 0 1 0 -15 0zM826.81 330.88 a7.5 7.5 0 1 0 15 0 a7.5 7.5 0 1 0 -15 0zM761.86 293.38 a7.5 7.5 0 1 0 15 0 a7.5 7.5 0 1 0 -15 0zM761.86 218.38 a7.5 7.5 0 1 0 15 0 a7.5 7.5 0 1 0 -15 0zM1151.58 68.38 a7.5 7.5 0 1 0 15 0 a7.5 7.5 0 1 0 -15 0zM1216.54 105.88 a7.5 7.5 0 1 0 15 0 a7.5 7.5 0 1 0 -15 0zM1216.54 180.88 a7.5 7.5 0 1 0 15 0 a7.5 7.5 0 1 0 -15 0zM1151.58 218.38 a7.5 7.5 0 1 0 15 0 a7.5 7.5 0 1 0 -15 0zM1086.63 180.88 a7.5 7.5 0 1 0 15 0 a7.5 7.5 0 1 0 -15 0zM1086.63 105.88 a7.5 7.5 0 1 0 15 0 a7.5 7.5 0 1 0 -15 0zM1151.58 293.38 a7.5 7.5 0 1 0 15 0 a7.5 7.5 0 1 0 -15 0zM1216.54 330.88 a7.5 7.5 0 1 0 15 0 a7.5 7.5 0 1 0 -15 0zM1216.54 405.88 a7.5 7.5 0 1 0 15 0 a7.5 7.5 0 1 0 -15 0zM1151.58 443.38 a7.5 7.5 0 1 0 15 0 a7.5 7.5 0 1 0 -15 0zM1086.63 405.88 a7.5 7.5 0 1 0 15 0 a7.5 7.5 0 1 0 -15 0zM1086.63 330.88 a7.5 7.5 0 1 0 15 0 a7.5 7.5 0 1 0 -15 0zM1216.54 -44.12 a7.5 7.5 0 1 0 15 0 a7.5 7.5 0 1 0 -15 0zM1281.49 -6.62 a7.5 7.5 0 1 0 15 0 a7.5 7.5 0 1 0 -15 0zM1281.49 68.38 a7.5 7.5 0 1 0 15 0 a7.5 7.5 0 1 0 -15 0zM1151.58 -6.62 a7.5 7.5 0 1 0 15 0 a7.5 7.5 0 1 0 -15 0zM1411.4 518.38 a7.5 7.5 0 1 0 15 0 a7.5 7.5 0 1 0 -15 0zM1476.35 555.88 a7.5 7.5 0 1 0 15 0 a7.5 7.5 0 1 0 -15 0zM1476.35 630.88 a7.5 7.5 0 1 0 15 0 a7.5 7.5 0 1 0 -15 0zM1411.4 668.38 a7.5 7.5 0 1 0 15 0 a7.5 7.5 0 1 0 -15 0zM1346.44 630.88 a7.5 7.5 0 1 0 15 0 a7.5 7.5 0 1 0 -15 0zM1346.44 555.88 a7.5 7.5 0 1 0 15 0 a7.5 7.5 0 1 0 -15 0zM1541.31 68.38 a7.5 7.5 0 1 0 15 0 a7.5 7.5 0 1 0 -15 0zM1606.26 105.88 a7.5 7.5 0 1 0 15 0 a7.5 7.5 0 1 0 -15 0zM1606.26 180.88 a7.5 7.5 0 1 0 15 0 a7.5 7.5 0 1 0 -15 0zM1541.31 218.38 a7.5 7.5 0 1 0 15 0 a7.5 7.5 0 1 0 -15 0zM1476.35 180.88 a7.5 7.5 0 1 0 15 0 a7.5 7.5 0 1 0 -15 0zM1476.35 105.88 a7.5 7.5 0 1 0 15 0 a7.5 7.5 0 1 0 -15 0zM1541.31 293.38 a7.5 7.5 0 1 0 15 0 a7.5 7.5 0 1 0 -15 0zM1476.35 330.88 a7.5 7.5 0 1 0 15 0 a7.5 7.5 0 1 0 -15 0zM1411.4 293.38 a7.5 7.5 0 1 0 15 0 a7.5 7.5 0 1 0 -15 0zM1411.4 218.38 a7.5 7.5 0 1 0 15 0 a7.5 7.5 0 1 0 -15 0z" fill="#03305d"></path><path d="M88.52 180.18L131.82 205.18L131.82 255.18L88.52 280.18L45.22 255.18L45.22 205.18zM88.52 480.18L131.82 505.18L131.82 555.18L88.52 580.18L45.22 555.18L45.22 505.18zM175.13 30.18L218.43 55.18L218.43 105.18L175.13 130.18L131.82 105.18L131.82 55.18zM305.03 105.18L348.34 130.18L348.34 180.18L305.03 205.18L261.73 180.18L261.73 130.18zM348.34 330.18L391.64 355.18L391.64 405.18L348.34 430.18L305.03 405.18L305.03 355.18zM434.94 480.18L478.25 505.18L478.25 555.18L434.94 580.18L391.64 555.18L391.64 505.18zM478.25 -44.82L521.55 -19.82L521.55 30.18L478.25 55.18L434.94 30.18L434.94 -19.82zM521.55 330.18L564.85 355.18L564.85 405.18L521.55 430.18L478.25 405.18L478.25 355.18zM608.15 180.18L651.46 205.18L651.46 255.18L608.15 280.18L564.85 255.18L564.85 205.18zM564.85 405.18L608.15 430.18L608.15 480.18L564.85 505.18L521.55 480.18L521.55 430.18zM651.46 255.18L694.76 280.18L694.76 330.18L651.46 355.18L608.15 330.18L608.15 280.18zM694.76 330.18L738.06 355.18L738.06 405.18L694.76 430.18L651.46 405.18L651.46 355.18zM781.36 330.18L824.67 355.18L824.67 405.18L781.36 430.18L738.06 405.18L738.06 355.18zM867.97 30.18L911.27 55.18L911.27 105.18L867.97 130.18L824.67 105.18L824.67 55.18zM824.67 255.18L867.97 280.18L867.97 330.18L824.67 355.18L781.36 330.18L781.36 280.18zM867.97 480.18L911.27 505.18L911.27 555.18L867.97 580.18L824.67 555.18L824.67 505.18zM954.57 30.18L997.88 55.18L997.88 105.18L954.57 130.18L911.27 105.18L911.27 55.18zM911.27 105.18L954.57 130.18L954.57 180.18L911.27 205.18L867.97 180.18L867.97 130.18zM954.57 480.18L997.88 505.18L997.88 555.18L954.57 580.18L911.27 555.18L911.27 505.18zM1041.18 330.18L1084.48 355.18L1084.48 405.18L1041.18 430.18L997.88 405.18L997.88 355.18zM997.88 405.18L1041.18 430.18L1041.18 480.18L997.88 505.18L954.57 480.18L954.57 430.18zM1127.78 180.18L1171.09 205.18L1171.09 255.18L1127.78 280.18L1084.48 255.18L1084.48 205.18zM1214.39 480.18L1257.69 505.18L1257.69 555.18L1214.39 580.18L1171.09 555.18L1171.09 505.18zM1387.6 30.18L1430.9 55.18L1430.9 105.18L1387.6 130.18L1344.3 105.18L1344.3 55.18zM1344.3 255.18L1387.6 280.18L1387.6 330.18L1344.3 355.18L1300.99 330.18L1300.99 280.18z" stroke="rgba(6, 80, 156, 0.93)" stroke-width="2"></path></g><defs><mask id="SvgjsMask1000"><rect width="1440" height="560" fill="#ffffff"></rect></mask></defs></svg>