<svg xmlns="http://www.w3.org/2000/svg" version="1.1" xmlns:xlink="http://www.w3.org/1999/xlink" xmlns:svgjs="http://svgjs.dev/svgjs" viewBox="0 0 2400 800"><defs><linearGradient x1="50%" y1="0%" x2="50%" y2="100%" id="sssurf-grad"><stop stop-color="hsla(236, 94%, 39%, 1.00)" stop-opacity="1" offset="0%"></stop><stop stop-color="hsl(208, 74%, 93%)" stop-opacity="1" offset="100%"></stop></linearGradient></defs><g fill="url(#sssurf-grad)" transform="matrix(1,0,0,1,0,-96.06900024414062)"><path d="M 0 330.5014181365059 Q 450 457.92272723416886 600 327.8121725120067 Q 1050 465.66694603147903 1200 312.3179553625823 Q 1650 647.4273226756496 1800 343.7639454297748 Q 2250 529.6722589594564 2400 337.1150265342468 L 2400 800 L 0 800 L 0 312.1380263415962 Z" transform="matrix(1,0,0,1,0,35)" opacity="0.05"></path><path d="M 0 330.5014181365059 Q 450 457.92272723416886 600 327.8121725120067 Q 1050 465.66694603147903 1200 312.3179553625823 Q 1650 647.4273226756496 1800 343.7639454297748 Q 2250 529.6722589594564 2400 337.1150265342468 L 2400 800 L 0 800 L 0 312.1380263415962 Z" transform="matrix(1,0,0,1,0,70)" opacity="0.21"></path><path d="M 0 330.5014181365059 Q 450 457.92272723416886 600 327.8121725120067 Q 1050 465.66694603147903 1200 312.3179553625823 Q 1650 647.4273226756496 1800 343.7639454297748 Q 2250 529.6722589594564 2400 337.1150265342468 L 2400 800 L 0 800 L 0 312.1380263415962 Z" transform="matrix(1,0,0,1,0,105)" opacity="0.37"></path><path d="M 0 330.5014181365059 Q 450 457.92272723416886 600 327.8121725120067 Q 1050 465.66694603147903 1200 312.3179553625823 Q 1650 647.4273226756496 1800 343.7639454297748 Q 2250 529.6722589594564 2400 337.1150265342468 L 2400 800 L 0 800 L 0 312.1380263415962 Z" transform="matrix(1,0,0,1,0,140)" opacity="0.53"></path><path d="M 0 330.5014181365059 Q 450 457.92272723416886 600 327.8121725120067 Q 1050 465.66694603147903 1200 312.3179553625823 Q 1650 647.4273226756496 1800 343.7639454297748 Q 2250 529.6722589594564 2400 337.1150265342468 L 2400 800 L 0 800 L 0 312.1380263415962 Z" transform="matrix(1,0,0,1,0,175)" opacity="0.68"></path><path d="M 0 330.5014181365059 Q 450 457.92272723416886 600 327.8121725120067 Q 1050 465.66694603147903 1200 312.3179553625823 Q 1650 647.4273226756496 1800 343.7639454297748 Q 2250 529.6722589594564 2400 337.1150265342468 L 2400 800 L 0 800 L 0 312.1380263415962 Z" transform="matrix(1,0,0,1,0,210)" opacity="0.84"></path><path d="M 0 330.5014181365059 Q 450 457.92272723416886 600 327.8121725120067 Q 1050 465.66694603147903 1200 312.3179553625823 Q 1650 647.4273226756496 1800 343.7639454297748 Q 2250 529.6722589594564 2400 337.1150265342468 L 2400 800 L 0 800 L 0 312.1380263415962 Z" transform="matrix(1,0,0,1,0,245)" opacity="1"></path></g></svg>